<svg width="59" height="46" viewBox="0 0 59 46" fill="none" xmlns="http://www.w3.org/2000/svg">
<rect width="59" height="46" fill="#009CC2"/>
<path fill-rule="evenodd" clip-rule="evenodd" d="M26.6468 17.1722C26.3633 17.1722 26.1338 16.9334 26.1338 16.6548C26.1338 16.3763 26.3633 16.1375 26.6468 16.1375C26.9439 16.1375 27.1734 16.3763 27.1734 16.6548C27.1734 16.9334 26.9439 17.1722 26.6468 17.1722ZM32.3442 17.1722C32.0472 17.1722 31.8176 16.9334 31.8176 16.6548C31.8176 16.3763 32.0472 16.1375 32.3442 16.1375C32.6276 16.1375 32.8572 16.3763 32.8572 16.6548C32.8572 16.9334 32.6276 17.1722 32.3442 17.1722ZM21.3815 19.6129C20.612 19.6129 19.991 20.2232 19.991 20.9659V26.6698C19.991 27.426 20.612 28.0362 21.3815 28.0362C22.151 28.0362 22.7586 27.426 22.7586 26.6698V20.9659C22.7586 20.2232 22.1376 19.6129 21.3815 19.6129ZM35.6923 19.8649H23.2986V28.6995C23.2986 29.5086 23.9602 30.1586 24.7837 30.1586H25.7828L25.7963 33.1698C25.7963 33.9259 26.4173 34.5362 27.1734 34.5362C27.9429 34.5362 28.5639 33.9259 28.5639 33.1698V30.1586H30.4271V33.1698C30.4271 33.9259 31.0481 34.5362 31.8176 34.5362C32.5871 34.5362 33.2082 33.9259 33.2082 33.1698V30.1586H34.2207C35.0308 30.1586 35.6923 29.5086 35.6923 28.6995V19.8649ZM32.5602 14.4926L33.5187 12.7549C33.5727 12.6621 33.5457 12.5427 33.4512 12.4897C33.3567 12.4497 33.2352 12.4763 33.1812 12.5692L32.2091 14.3202C31.3856 13.9619 30.4676 13.7631 29.4955 13.7631C28.5234 13.7631 27.6054 13.9619 26.7818 14.3202L25.8098 12.5692C25.7558 12.4763 25.6343 12.4497 25.5398 12.4897C25.4452 12.5427 25.4182 12.6621 25.4723 12.7549L26.4308 14.4926C24.5272 15.4478 23.2447 17.2783 23.2447 19.3873H35.7328C35.7328 17.2783 34.4503 15.4478 32.5602 14.4926ZM39 20.9659C39 20.2098 38.379 19.6129 37.6095 19.6129C36.8534 19.6129 36.2324 20.2098 36.2324 20.9659V26.6698C36.2324 27.426 36.8534 28.0362 37.6095 28.0362C38.379 28.0362 39 27.426 39 26.6698V20.9659Z" fill="white"/>
</svg>
